<svg width="600" height="600" xmlns="http://www.w3.org/2000/svg">
  <defs>
    <linearGradient id="yoga-mat" x1="0%" y1="0%" x2="100%" y2="100%">
      <stop offset="0%" style="stop-color:#7c3aed"/>
      <stop offset="100%" style="stop-color:#6d28d9"/>
    </linearGradient>
  </defs>
  <rect width="600" height="600" fill="#f8f8f8"/>
  <!-- Rolled Yoga Mat -->
  <g transform="translate(100, 150)">
    <!-- Mat roll side view -->
    <ellipse cx="60" cy="150" rx="60" ry="100" fill="url(#yoga-mat)"/>
    <ellipse cx="60" cy="150" rx="50" ry="85" fill="#8b5cf6"/>
    <ellipse cx="60" cy="150" rx="40" ry="70" fill="#a78bfa"/>
    <ellipse cx="60" cy="150" rx="30" ry="55" fill="#c4b5fd"/>
    <ellipse cx="60" cy="150" rx="15" ry="35" fill="#ede9fe"/>
    <!-- Unrolled portion -->
    <path d="M 120 50 L 450 50 L 450 250 L 120 250 Z" fill="url(#yoga-mat)"/>
    <!-- Texture lines -->
    <line x1="150" y1="50" x2="150" y2="250" stroke="#6d28d9" stroke-width="1" opacity="0.3"/>
    <line x1="200" y1="50" x2="200" y2="250" stroke="#6d28d9" stroke-width="1" opacity="0.3"/>
    <line x1="250" y1="50" x2="250" y2="250" stroke="#6d28d9" stroke-width="1" opacity="0.3"/>
    <line x1="300" y1="50" x2="300" y2="250" stroke="#6d28d9" stroke-width="1" opacity="0.3"/>
    <line x1="350" y1="50" x2="350" y2="250" stroke="#6d28d9" stroke-width="1" opacity="0.3"/>
    <line x1="400" y1="50" x2="400" y2="250" stroke="#6d28d9" stroke-width="1" opacity="0.3"/>
    <!-- Carrying strap -->
    <rect x="40" y="280" width="80" height="8" rx="4" fill="#4b5563"/>
  </g>
  <!-- Lotus icon -->
  <g transform="translate(280, 330)">
    <ellipse cx="20" cy="15" rx="15" ry="25" fill="#c4b5fd" transform="rotate(-30)"/>
    <ellipse cx="20" cy="15" rx="15" ry="25" fill="#c4b5fd" transform="rotate(30)"/>
    <ellipse cx="20" cy="0" rx="12" ry="22" fill="#a78bfa"/>
    <circle cx="20" cy="10" r="8" fill="#7c3aed"/>
  </g>
  <text x="300" y="500" font-family="Arial, sans-serif" font-size="22" font-weight="bold" fill="#7c3aed" text-anchor="middle">Yoga Mat Pro</text>
  <text x="300" y="530" font-family="Arial, sans-serif" font-size="14" fill="#666" text-anchor="middle">6mm Thick • Non-Slip Surface</text>
</svg>