<svg width="600" height="600" xmlns="http://www.w3.org/2000/svg">
  <defs>
    <linearGradient id="mixer-body" x1="0%" y1="0%" x2="100%" y2="100%">
      <stop offset="0%" style="stop-color:#ef4444"/>
      <stop offset="100%" style="stop-color:#dc2626"/>
    </linearGradient>
  </defs>
  <rect width="600" height="600" fill="#f8f8f8"/>
  <!-- Stand Mixer -->
  <g transform="translate(150, 100)">
    <!-- Base -->
    <ellipse cx="150" cy="400" rx="120" ry="25" fill="#b91c1c"/>
    <rect x="30" y="350" width="240" height="50" rx="10" fill="url(#mixer-body)"/>
    <!-- Body -->
    <rect x="60" y="150" width="180" height="200" rx="20" fill="url(#mixer-body)"/>
    <!-- Head -->
    <rect x="40" y="80" width="220" height="100" rx="25" fill="url(#mixer-body)"/>
    <rect x="50" y="90" width="200" height="80" rx="20" fill="#fef2f2"/>
    <!-- Controls -->
    <circle cx="100" cy="130" r="20" fill="#1f2937"/>
    <circle cx="100" cy="130" r="15" fill="#374151"/>
    <circle cx="200" cy="130" r="12" fill="#10b981"/>
    <!-- Bowl -->
    <ellipse cx="260" cy="350" rx="80" ry="20" fill="#d1d5db"/>
    <path d="M 180 350 C 180 400 200 430 260 430 C 320 430 340 400 340 350 L 340 350 C 340 360 320 370 260 370 C 200 370 180 360 180 350 Z" fill="#e5e7eb"/>
    <!-- Attachment -->
    <rect x="230" y="180" width="20" height="120" fill="#6b7280"/>
    <ellipse cx="240" cy="300" rx="30" ry="10" fill="#9ca3af"/>
  </g>
  <text x="300" y="520" font-family="Arial, sans-serif" font-size="22" font-weight="bold" fill="#dc2626" text-anchor="middle">Stand Mixer Pro</text>
  <text x="300" y="550" font-family="Arial, sans-serif" font-size="14" fill="#666" text-anchor="middle">800W • 6 Speed Settings</text>
</svg>