<svg width="600" height="600" xmlns="http://www.w3.org/2000/svg">
  <defs>
    <linearGradient id="yogurt-cup" x1="0%" y1="0%" x2="100%" y2="0%">
      <stop offset="0%" style="stop-color:#e8e8e8"/>
      <stop offset="50%" style="stop-color:#ffffff"/>
      <stop offset="100%" style="stop-color:#e8e8e8"/>
    </linearGradient>
  </defs>
  <rect width="600" height="600" fill="#f8f8f8"/>
  <!-- Yogurt Container -->
  <g transform="translate(150, 120)">
    <!-- Lid -->
    <ellipse cx="150" cy="30" rx="130" ry="25" fill="#1d4ed8"/>
    <ellipse cx="150" cy="25" rx="125" ry="22" fill="#3b82f6"/>
    <!-- Body -->
    <path d="M 30 30 L 20 330 C 20 350 60 360 150 360 C 240 360 280 350 280 330 L 270 30 Z" fill="url(#yogurt-cup)" stroke="#d0d0d0" stroke-width="2"/>
    <!-- Greek Design -->
    <rect x="50" y="80" width="200" height="8" fill="#1d4ed8"/>
    <rect x="50" y="96" width="200" height="4" fill="#1d4ed8"/>
    <!-- Greek Pattern -->
    <g fill="#3b82f6">
      <rect x="55" y="110" width="15" height="15"/>
      <rect x="85" y="110" width="15" height="15"/>
      <rect x="115" y="110" width="15" height="15"/>
      <rect x="145" y="110" width="15" height="15"/>
      <rect x="175" y="110" width="15" height="15"/>
      <rect x="205" y="110" width="15" height="15"/>
    </g>
    <!-- Text -->
    <text x="150" y="175" font-family="Georgia, serif" font-size="36" font-weight="bold" fill="#1d4ed8" text-anchor="middle">GREEK</text>
    <text x="150" y="215" font-family="Georgia, serif" font-size="28" fill="#374151" text-anchor="middle">Yogurt</text>
    <text x="150" y="265" font-family="Arial, sans-serif" font-size="24" fill="#6b7280" text-anchor="middle">500g</text>
    <!-- Protein badge -->
    <circle cx="150" cy="310" r="30" fill="#1d4ed8"/>
    <text x="150" y="305" font-family="Arial, sans-serif" font-size="10" fill="white" text-anchor="middle">HIGH</text>
    <text x="150" y="320" font-family="Arial, sans-serif" font-size="12" font-weight="bold" fill="white" text-anchor="middle">PROTEIN</text>
  </g>
  <text x="300" y="530" font-family="Arial, sans-serif" font-size="22" font-weight="bold" fill="#1d4ed8" text-anchor="middle">Greek Yogurt 500g</text>
  <text x="300" y="558" font-family="Arial, sans-serif" font-size="14" fill="#666" text-anchor="middle">Authentic Recipe • 0% Fat</text>
</svg>