<svg width="600" height="600" xmlns="http://www.w3.org/2000/svg">
  <defs>
    <linearGradient id="milk-bottle" x1="0%" y1="0%" x2="100%" y2="0%">
      <stop offset="0%" style="stop-color:#f0f0f0"/>
      <stop offset="50%" style="stop-color:#ffffff"/>
      <stop offset="100%" style="stop-color:#f0f0f0"/>
    </linearGradient>
  </defs>
  <rect width="600" height="600" fill="#f8f8f8"/>
  <!-- Milk Bottle -->
  <g transform="translate(175, 80)">
    <!-- Cap -->
    <rect x="75" y="0" width="100" height="30" rx="5" fill="#10b981"/>
    <rect x="85" y="25" width="80" height="15" fill="#059669"/>
    <!-- Neck -->
    <rect x="90" y="35" width="70" height="50" fill="url(#milk-bottle)"/>
    <!-- Body -->
    <path d="M 70 85 C 60 95 50 110 50 130 L 50 380 C 50 400 70 420 100 420 L 150 420 C 180 420 200 400 200 380 L 200 130 C 200 110 190 95 180 85 L 160 85 L 90 85 Z" fill="url(#milk-bottle)" stroke="#e0e0e0" stroke-width="2"/>
    <!-- Organic Label -->
    <rect x="70" y="130" width="110" height="50" rx="5" fill="#10b981"/>
    <text x="125" y="162" font-family="Arial, sans-serif" font-size="16" font-weight="bold" fill="white" text-anchor="middle">ORGANIC</text>
    <!-- Milk text -->
    <text x="125" y="230" font-family="Georgia, serif" font-size="42" font-weight="bold" fill="#374151" text-anchor="middle">MILK</text>
    <text x="125" y="270" font-family="Arial, sans-serif" font-size="24" fill="#6b7280" text-anchor="middle">1L</text>
    <!-- Fresh indicator -->
    <circle cx="125" cy="340" r="35" fill="none" stroke="#10b981" stroke-width="3"/>
    <text x="125" y="345" font-family="Arial, sans-serif" font-size="12" font-weight="bold" fill="#10b981" text-anchor="middle">FRESH</text>
  </g>
  <text x="300" y="540" font-family="Arial, sans-serif" font-size="22" font-weight="bold" fill="#374151" text-anchor="middle">Organic Milk 1L</text>
  <text x="300" y="568" font-family="Arial, sans-serif" font-size="14" fill="#666" text-anchor="middle">Farm Fresh • Premium Quality</text>
</svg>