<svg width="600" height="600" xmlns="http://www.w3.org/2000/svg">
  <defs>
    <linearGradient id="spade-handle" x1="0%" y1="0%" x2="100%" y2="0%">
      <stop offset="0%" style="stop-color:#92400e"/>
      <stop offset="50%" style="stop-color:#b45309"/>
      <stop offset="100%" style="stop-color:#92400e"/>
    </linearGradient>
    <linearGradient id="spade-metal" x1="0%" y1="0%" x2="100%" y2="100%">
      <stop offset="0%" style="stop-color:#9ca3af"/>
      <stop offset="50%" style="stop-color:#e5e7eb"/>
      <stop offset="100%" style="stop-color:#6b7280"/>
    </linearGradient>
  </defs>
  <rect width="600" height="600" fill="#f8f8f8"/>
  <!-- Garden Spade -->
  <g transform="translate(220, 60)">
    <!-- Handle grip -->
    <ellipse cx="80" cy="30" rx="50" ry="18" fill="url(#spade-handle)"/>
    <rect x="70" y="15" width="20" height="40" fill="url(#spade-handle)"/>
    <!-- Shaft -->
    <rect x="65" y="50" width="30" height="250" fill="url(#spade-handle)"/>
    <!-- Collar -->
    <rect x="55" y="290" width="50" height="30" rx="5" fill="url(#spade-metal)"/>
    <!-- Blade -->
    <path d="M 30 320 L 130 320 L 115 480 Q 80 510 45 480 L 30 320 Z" fill="url(#spade-metal)"/>
    <!-- Blade edge -->
    <path d="M 35 470 Q 80 495 125 470" stroke="#4b5563" stroke-width="3" fill="none"/>
    <!-- Soil texture on blade -->
    <circle cx="60" cy="400" r="8" fill="#92400e" opacity="0.4"/>
    <circle cx="100" cy="380" r="6" fill="#92400e" opacity="0.3"/>
    <circle cx="75" cy="420" r="5" fill="#92400e" opacity="0.3"/>
  </g>
  <text x="300" y="540" font-family="Arial, sans-serif" font-size="22" font-weight="bold" fill="#92400e" text-anchor="middle">Garden Spade</text>
  <text x="300" y="570" font-family="Arial, sans-serif" font-size="14" fill="#666" text-anchor="middle">Stainless Steel • Ash Handle</text>
</svg>