<svg width="600" height="600" xmlns="http://www.w3.org/2000/svg">
  <defs>
    <linearGradient id="glove1" x1="0%" y1="0%" x2="100%" y2="100%">
      <stop offset="0%" style="stop-color:#4a7c59"/>
      <stop offset="100%" style="stop-color:#2d5a3d"/>
    </linearGradient>
  </defs>
  <rect width="600" height="600" fill="#f8f8f8"/>
  <!-- Left Glove -->
  <g transform="translate(80, 100)">
    <path d="M 60 80 L 80 50 L 100 80 L 100 280 C 100 300 90 320 60 320 L 40 320 C 20 320 0 300 0 280 L 0 80 L 30 40 L 50 70 Z" fill="url(#glove1)"/>
    <ellipse cx="50" cy="300" rx="50" ry="30" fill="#2d5a3d"/>
    <!-- Fingers -->
    <rect x="0" y="80" width="25" height="70" rx="12" fill="#4a7c59"/>
    <rect x="25" y="60" width="25" height="90" rx="12" fill="#4a7c59"/>
    <rect x="50" y="50" width="25" height="100" rx="12" fill="#4a7c59"/>
    <rect x="75" y="60" width="25" height="90" rx="12" fill="#4a7c59"/>
    <!-- Grip dots -->
    <circle cx="20" cy="180" r="6" fill="#1a4a28"/>
    <circle cx="45" cy="175" r="6" fill="#1a4a28"/>
    <circle cx="70" cy="180" r="6" fill="#1a4a28"/>
    <circle cx="20" cy="210" r="6" fill="#1a4a28"/>
    <circle cx="45" cy="205" r="6" fill="#1a4a28"/>
    <circle cx="70" cy="210" r="6" fill="#1a4a28"/>
  </g>
  <!-- Right Glove -->
  <g transform="translate(320, 100) scale(-1, 1) translate(-100, 0)">
    <path d="M 60 80 L 80 50 L 100 80 L 100 280 C 100 300 90 320 60 320 L 40 320 C 20 320 0 300 0 280 L 0 80 L 30 40 L 50 70 Z" fill="url(#glove1)"/>
    <ellipse cx="50" cy="300" rx="50" ry="30" fill="#2d5a3d"/>
    <rect x="0" y="80" width="25" height="70" rx="12" fill="#4a7c59"/>
    <rect x="25" y="60" width="25" height="90" rx="12" fill="#4a7c59"/>
    <rect x="50" y="50" width="25" height="100" rx="12" fill="#4a7c59"/>
    <rect x="75" y="60" width="25" height="90" rx="12" fill="#4a7c59"/>
    <circle cx="20" cy="180" r="6" fill="#1a4a28"/>
    <circle cx="45" cy="175" r="6" fill="#1a4a28"/>
    <circle cx="70" cy="180" r="6" fill="#1a4a28"/>
    <circle cx="20" cy="210" r="6" fill="#1a4a28"/>
    <circle cx="45" cy="205" r="6" fill="#1a4a28"/>
    <circle cx="70" cy="210" r="6" fill="#1a4a28"/>
  </g>
  <text x="300" y="500" font-family="Arial, sans-serif" font-size="22" font-weight="bold" fill="#2d5a3d" text-anchor="middle">Garden Gloves Set</text>
  <text x="300" y="530" font-family="Arial, sans-serif" font-size="14" fill="#666" text-anchor="middle">Premium Grip • Size M-XL</text>
</svg>