<svg width="600" height="600" xmlns="http://www.w3.org/2000/svg">
  <defs>
    <linearGradient id="wood" x1="0%" y1="0%" x2="0%" y2="100%">
      <stop offset="0%" style="stop-color:#b8860b"/>
      <stop offset="100%" style="stop-color:#8b6914"/>
    </linearGradient>
    <linearGradient id="cushion" x1="0%" y1="0%" x2="0%" y2="100%">
      <stop offset="0%" style="stop-color:#6b7280"/>
      <stop offset="100%" style="stop-color:#4b5563"/>
    </linearGradient>
  </defs>
  <rect width="600" height="600" fill="#f0f4f8"/>
  <!-- Table -->
  <ellipse cx="300" cy="320" rx="200" ry="40" fill="url(#wood)"/>
  <rect x="100" y="280" width="400" height="40" rx="10" fill="url(#wood)"/>
  <!-- Table Legs -->
  <rect x="130" y="320" width="20" height="150" fill="#8b6914"/>
  <rect x="450" y="320" width="20" height="150" fill="#8b6914"/>
  <rect x="220" y="320" width="15" height="120" fill="#8b6914"/>
  <rect x="365" y="320" width="15" height="120" fill="#8b6914"/>
  <!-- Chair 1 (left) -->
  <g transform="translate(40, 180)">
    <rect x="0" y="100" width="80" height="80" rx="5" fill="url(#cushion)"/>
    <rect x="5" y="0" width="70" height="100" rx="5" fill="url(#wood)"/>
    <rect x="5" y="180" width="12" height="80" fill="#8b6914"/>
    <rect x="63" y="180" width="12" height="80" fill="#8b6914"/>
  </g>
  <!-- Chair 2 (right) -->
  <g transform="translate(480, 180)">
    <rect x="0" y="100" width="80" height="80" rx="5" fill="url(#cushion)"/>
    <rect x="5" y="0" width="70" height="100" rx="5" fill="url(#wood)"/>
    <rect x="5" y="180" width="12" height="80" fill="#8b6914"/>
    <rect x="63" y="180" width="12" height="80" fill="#8b6914"/>
  </g>
  <!-- Plates on table -->
  <ellipse cx="220" cy="250" rx="40" ry="15" fill="white" stroke="#d0d0d0" stroke-width="2"/>
  <ellipse cx="380" cy="250" rx="40" ry="15" fill="white" stroke="#d0d0d0" stroke-width="2"/>
  <!-- Centerpiece -->
  <ellipse cx="300" cy="240" rx="30" ry="12" fill="#22c55e"/>
  <circle cx="290" cy="220" r="15" fill="#16a34a"/>
  <circle cx="310" cy="215" r="12" fill="#15803d"/>
  <text x="300" y="530" font-family="Arial, sans-serif" font-size="22" font-weight="bold" fill="#8b6914" text-anchor="middle">Outdoor Dining Set</text>
  <text x="300" y="558" font-family="Arial, sans-serif" font-size="14" fill="#666" text-anchor="middle">6-Piece • Weather Resistant</text>
</svg>